<mxfile host="app.diagrams.net" modified="2023-12-13T09:43:47.075Z" agent="Mozilla/5.0 (Windows NT 10.0; Win64; x64) AppleWebKit/537.36 (KHTML, like Gecko) Chrome/120.0.0.0 Safari/537.36" etag="EcFPBdYs9H6DLE2x2f5R" version="22.1.8" type="github">
  <diagram name="Page-1" id="b55HLDnaR5GYM7zSGyJQ">
    <mxGraphModel dx="1290" dy="565" grid="1" gridSize="10" guides="1" tooltips="1" connect="1" arrows="1" fold="1" page="1" pageScale="1" pageWidth="827" pageHeight="1169" math="0" shadow="0">
      <root>
        <mxCell id="0" />
        <mxCell id="1" parent="0" />
        <mxCell id="NToYOBmcwW4lkF_IZ1At-2" style="edgeStyle=orthogonalEdgeStyle;rounded=0;orthogonalLoop=1;jettySize=auto;html=1;exitX=0.5;exitY=1;exitDx=0;exitDy=0;entryX=0.5;entryY=0;entryDx=0;entryDy=0;" parent="1" source="NToYOBmcwW4lkF_IZ1At-3" target="NToYOBmcwW4lkF_IZ1At-5" edge="1">
          <mxGeometry relative="1" as="geometry" />
        </mxCell>
        <mxCell id="NToYOBmcwW4lkF_IZ1At-3" value="Exercice 2.4" style="rounded=1;whiteSpace=wrap;html=1;" parent="1" vertex="1">
          <mxGeometry x="80" y="10" width="120" height="40" as="geometry" />
        </mxCell>
        <mxCell id="NToYOBmcwW4lkF_IZ1At-4" style="edgeStyle=orthogonalEdgeStyle;rounded=0;orthogonalLoop=1;jettySize=auto;html=1;exitX=0.5;exitY=1;exitDx=0;exitDy=0;entryX=0.5;entryY=0;entryDx=0;entryDy=0;" parent="1" source="NToYOBmcwW4lkF_IZ1At-5" target="NToYOBmcwW4lkF_IZ1At-7" edge="1">
          <mxGeometry relative="1" as="geometry" />
        </mxCell>
        <mxCell id="NToYOBmcwW4lkF_IZ1At-5" value="configuration:&lt;br&gt;pin 2 et conteur&lt;br&gt;pin 13 sortie" style="rounded=0;whiteSpace=wrap;html=1;" parent="1" vertex="1">
          <mxGeometry x="80" y="90" width="120" height="40" as="geometry" />
        </mxCell>
        <mxCell id="NToYOBmcwW4lkF_IZ1At-6" style="edgeStyle=orthogonalEdgeStyle;rounded=0;orthogonalLoop=1;jettySize=auto;html=1;exitX=0.5;exitY=1;exitDx=0;exitDy=0;entryX=0.5;entryY=0;entryDx=0;entryDy=0;" parent="1" source="NToYOBmcwW4lkF_IZ1At-7" target="NToYOBmcwW4lkF_IZ1At-9" edge="1">
          <mxGeometry relative="1" as="geometry" />
        </mxCell>
        <mxCell id="NToYOBmcwW4lkF_IZ1At-7" value="initialisation:&lt;br&gt;pin 13=low" style="rounded=0;whiteSpace=wrap;html=1;" parent="1" vertex="1">
          <mxGeometry x="80" y="170" width="120" height="40" as="geometry" />
        </mxCell>
        <mxCell id="NToYOBmcwW4lkF_IZ1At-8" style="edgeStyle=orthogonalEdgeStyle;rounded=0;orthogonalLoop=1;jettySize=auto;html=1;exitX=0.5;exitY=1;exitDx=0;exitDy=0;entryX=0.5;entryY=0;entryDx=0;entryDy=0;" parent="1" source="NToYOBmcwW4lkF_IZ1At-9" target="NToYOBmcwW4lkF_IZ1At-12" edge="1">
          <mxGeometry relative="1" as="geometry" />
        </mxCell>
        <mxCell id="NToYOBmcwW4lkF_IZ1At-9" value="lire &amp;amp; sauvegarder&lt;br&gt;état du pin 2" style="shape=parallelogram;perimeter=parallelogramPerimeter;whiteSpace=wrap;html=1;fixedSize=1;" parent="1" vertex="1">
          <mxGeometry x="70" y="250" width="140" height="40" as="geometry" />
        </mxCell>
        <mxCell id="pHzrLmhHpe5-lS-Qv1kn-11" style="edgeStyle=orthogonalEdgeStyle;rounded=0;orthogonalLoop=1;jettySize=auto;html=1;exitX=0.5;exitY=1;exitDx=0;exitDy=0;entryX=0.5;entryY=0;entryDx=0;entryDy=0;" parent="1" source="NToYOBmcwW4lkF_IZ1At-12" target="pHzrLmhHpe5-lS-Qv1kn-8" edge="1">
          <mxGeometry relative="1" as="geometry" />
        </mxCell>
        <mxCell id="pHzrLmhHpe5-lS-Qv1kn-34" style="edgeStyle=orthogonalEdgeStyle;rounded=0;orthogonalLoop=1;jettySize=auto;html=1;exitX=1;exitY=0.5;exitDx=0;exitDy=0;entryX=0.5;entryY=0;entryDx=0;entryDy=0;" parent="1" source="NToYOBmcwW4lkF_IZ1At-12" target="pHzrLmhHpe5-lS-Qv1kn-31" edge="1">
          <mxGeometry relative="1" as="geometry" />
        </mxCell>
        <mxCell id="NToYOBmcwW4lkF_IZ1At-12" value="pin 2= false?" style="rhombus;whiteSpace=wrap;html=1;" parent="1" vertex="1">
          <mxGeometry x="100" y="330" width="80" height="80" as="geometry" />
        </mxCell>
        <mxCell id="NToYOBmcwW4lkF_IZ1At-13" value="oui" style="text;html=1;strokeColor=none;fillColor=none;align=center;verticalAlign=middle;whiteSpace=wrap;rounded=0;" parent="1" vertex="1">
          <mxGeometry x="160" y="340" width="30" height="20" as="geometry" />
        </mxCell>
        <mxCell id="NToYOBmcwW4lkF_IZ1At-14" value="non" style="text;html=1;strokeColor=none;fillColor=none;align=center;verticalAlign=middle;whiteSpace=wrap;rounded=0;" parent="1" vertex="1">
          <mxGeometry x="100" y="390" width="30" height="20" as="geometry" />
        </mxCell>
        <mxCell id="OnW3d8MUzAnd3P2urKrM-7" style="edgeStyle=orthogonalEdgeStyle;rounded=0;orthogonalLoop=1;jettySize=auto;html=1;exitX=0.5;exitY=1;exitDx=0;exitDy=0;entryX=0.5;entryY=0;entryDx=0;entryDy=0;" parent="1" source="OnW3d8MUzAnd3P2urKrM-1" target="OnW3d8MUzAnd3P2urKrM-5" edge="1">
          <mxGeometry relative="1" as="geometry" />
        </mxCell>
        <mxCell id="OnW3d8MUzAnd3P2urKrM-1" value="delay: 25ms" style="rounded=0;whiteSpace=wrap;html=1;" parent="1" vertex="1">
          <mxGeometry x="219.95999999999998" y="640" width="120" height="40" as="geometry" />
        </mxCell>
        <mxCell id="OnW3d8MUzAnd3P2urKrM-6" style="edgeStyle=orthogonalEdgeStyle;rounded=0;orthogonalLoop=1;jettySize=auto;html=1;exitX=0;exitY=0.5;exitDx=0;exitDy=0;" parent="1" source="OnW3d8MUzAnd3P2urKrM-4" edge="1">
          <mxGeometry relative="1" as="geometry">
            <mxPoint x="279.96" y="700" as="targetPoint" />
            <Array as="points">
              <mxPoint x="180" y="840" />
              <mxPoint x="180" y="700" />
            </Array>
          </mxGeometry>
        </mxCell>
        <mxCell id="OnW3d8MUzAnd3P2urKrM-12" style="edgeStyle=orthogonalEdgeStyle;rounded=0;orthogonalLoop=1;jettySize=auto;html=1;exitX=0.5;exitY=1;exitDx=0;exitDy=0;entryX=0.5;entryY=0;entryDx=0;entryDy=0;" parent="1" source="OnW3d8MUzAnd3P2urKrM-4" target="OnW3d8MUzAnd3P2urKrM-11" edge="1">
          <mxGeometry relative="1" as="geometry" />
        </mxCell>
        <mxCell id="OnW3d8MUzAnd3P2urKrM-4" value="pin 2= false?" style="rhombus;whiteSpace=wrap;html=1;" parent="1" vertex="1">
          <mxGeometry x="239.95999999999998" y="800" width="80" height="80" as="geometry" />
        </mxCell>
        <mxCell id="OnW3d8MUzAnd3P2urKrM-8" style="edgeStyle=orthogonalEdgeStyle;rounded=0;orthogonalLoop=1;jettySize=auto;html=1;exitX=0.5;exitY=1;exitDx=0;exitDy=0;entryX=0.5;entryY=0;entryDx=0;entryDy=0;" parent="1" source="OnW3d8MUzAnd3P2urKrM-5" target="OnW3d8MUzAnd3P2urKrM-4" edge="1">
          <mxGeometry relative="1" as="geometry" />
        </mxCell>
        <mxCell id="OnW3d8MUzAnd3P2urKrM-5" value="lire état pin 2" style="rounded=0;whiteSpace=wrap;html=1;" parent="1" vertex="1">
          <mxGeometry x="219.95999999999998" y="720" width="120" height="40" as="geometry" />
        </mxCell>
        <mxCell id="OnW3d8MUzAnd3P2urKrM-9" value="non" style="text;html=1;strokeColor=none;fillColor=none;align=center;verticalAlign=middle;whiteSpace=wrap;rounded=0;" parent="1" vertex="1">
          <mxGeometry x="289.96" y="870" width="30" height="20" as="geometry" />
        </mxCell>
        <mxCell id="OnW3d8MUzAnd3P2urKrM-10" value="oui" style="text;html=1;strokeColor=none;fillColor=none;align=center;verticalAlign=middle;whiteSpace=wrap;rounded=0;" parent="1" vertex="1">
          <mxGeometry x="229.95999999999998" y="860" width="30" height="20" as="geometry" />
        </mxCell>
        <mxCell id="dF_B5DAqGJrbBnQ3naxt-13" style="edgeStyle=orthogonalEdgeStyle;rounded=0;orthogonalLoop=1;jettySize=auto;html=1;exitX=0.5;exitY=1;exitDx=0;exitDy=0;entryX=0.5;entryY=0;entryDx=0;entryDy=0;" parent="1" source="OnW3d8MUzAnd3P2urKrM-11" target="dF_B5DAqGJrbBnQ3naxt-12" edge="1">
          <mxGeometry relative="1" as="geometry" />
        </mxCell>
        <mxCell id="OnW3d8MUzAnd3P2urKrM-11" value="delay: 25ms" style="rounded=0;whiteSpace=wrap;html=1;" parent="1" vertex="1">
          <mxGeometry x="219.95999999999998" y="920" width="120" height="40" as="geometry" />
        </mxCell>
        <mxCell id="pHzrLmhHpe5-lS-Qv1kn-27" style="edgeStyle=orthogonalEdgeStyle;rounded=0;orthogonalLoop=1;jettySize=auto;html=1;exitX=0.5;exitY=1;exitDx=0;exitDy=0;" parent="1" source="pHzrLmhHpe5-lS-Qv1kn-8" edge="1">
          <mxGeometry relative="1" as="geometry">
            <mxPoint x="140" y="230" as="targetPoint" />
            <Array as="points">
              <mxPoint x="140" y="1660" />
              <mxPoint x="30" y="1660" />
              <mxPoint x="30" y="230" />
            </Array>
          </mxGeometry>
        </mxCell>
        <mxCell id="pHzrLmhHpe5-lS-Qv1kn-35" style="edgeStyle=orthogonalEdgeStyle;rounded=0;orthogonalLoop=1;jettySize=auto;html=1;exitX=1;exitY=0.5;exitDx=0;exitDy=0;entryX=0.5;entryY=0;entryDx=0;entryDy=0;" parent="1" source="pHzrLmhHpe5-lS-Qv1kn-8" target="pHzrLmhHpe5-lS-Qv1kn-23" edge="1">
          <mxGeometry relative="1" as="geometry" />
        </mxCell>
        <mxCell id="pHzrLmhHpe5-lS-Qv1kn-8" value="pin 13= low" style="rhombus;whiteSpace=wrap;html=1;" parent="1" vertex="1">
          <mxGeometry x="99.96000000000001" y="1090" width="80" height="80" as="geometry" />
        </mxCell>
        <mxCell id="pHzrLmhHpe5-lS-Qv1kn-9" value="oui" style="text;html=1;strokeColor=none;fillColor=none;align=center;verticalAlign=middle;whiteSpace=wrap;rounded=0;" parent="1" vertex="1">
          <mxGeometry x="159.96" y="1100" width="30" height="20" as="geometry" />
        </mxCell>
        <mxCell id="pHzrLmhHpe5-lS-Qv1kn-10" value="non" style="text;html=1;strokeColor=none;fillColor=none;align=center;verticalAlign=middle;whiteSpace=wrap;rounded=0;" parent="1" vertex="1">
          <mxGeometry x="99.96000000000001" y="1170" width="30" height="20" as="geometry" />
        </mxCell>
        <mxCell id="pHzrLmhHpe5-lS-Qv1kn-12" style="edgeStyle=orthogonalEdgeStyle;rounded=0;orthogonalLoop=1;jettySize=auto;html=1;exitX=0.5;exitY=1;exitDx=0;exitDy=0;entryX=0.5;entryY=0;entryDx=0;entryDy=0;" parent="1" source="pHzrLmhHpe5-lS-Qv1kn-13" target="pHzrLmhHpe5-lS-Qv1kn-18" edge="1">
          <mxGeometry relative="1" as="geometry" />
        </mxCell>
        <mxCell id="pHzrLmhHpe5-lS-Qv1kn-13" value="delay: 25ms" style="rounded=0;whiteSpace=wrap;html=1;" parent="1" vertex="1">
          <mxGeometry x="219.95999999999998" y="1320" width="120" height="40" as="geometry" />
        </mxCell>
        <mxCell id="pHzrLmhHpe5-lS-Qv1kn-14" style="edgeStyle=orthogonalEdgeStyle;rounded=0;orthogonalLoop=1;jettySize=auto;html=1;exitX=0;exitY=0.5;exitDx=0;exitDy=0;" parent="1" source="pHzrLmhHpe5-lS-Qv1kn-16" edge="1">
          <mxGeometry relative="1" as="geometry">
            <mxPoint x="279.96" y="1390" as="targetPoint" />
            <Array as="points">
              <mxPoint x="199.96" y="1530" />
              <mxPoint x="199.96" y="1390" />
            </Array>
          </mxGeometry>
        </mxCell>
        <mxCell id="pHzrLmhHpe5-lS-Qv1kn-15" style="edgeStyle=orthogonalEdgeStyle;rounded=0;orthogonalLoop=1;jettySize=auto;html=1;exitX=0.5;exitY=1;exitDx=0;exitDy=0;entryX=0.5;entryY=0;entryDx=0;entryDy=0;" parent="1" source="pHzrLmhHpe5-lS-Qv1kn-16" target="pHzrLmhHpe5-lS-Qv1kn-21" edge="1">
          <mxGeometry relative="1" as="geometry" />
        </mxCell>
        <mxCell id="pHzrLmhHpe5-lS-Qv1kn-16" value="pin 13= false" style="rhombus;whiteSpace=wrap;html=1;" parent="1" vertex="1">
          <mxGeometry x="239.96" y="1490" width="80.04" height="80" as="geometry" />
        </mxCell>
        <mxCell id="pHzrLmhHpe5-lS-Qv1kn-17" style="edgeStyle=orthogonalEdgeStyle;rounded=0;orthogonalLoop=1;jettySize=auto;html=1;exitX=0.5;exitY=1;exitDx=0;exitDy=0;entryX=0.5;entryY=0;entryDx=0;entryDy=0;" parent="1" source="pHzrLmhHpe5-lS-Qv1kn-18" target="pHzrLmhHpe5-lS-Qv1kn-16" edge="1">
          <mxGeometry relative="1" as="geometry" />
        </mxCell>
        <mxCell id="pHzrLmhHpe5-lS-Qv1kn-18" value="lire état pin 13" style="rounded=0;whiteSpace=wrap;html=1;" parent="1" vertex="1">
          <mxGeometry x="219.95999999999998" y="1410" width="120" height="40" as="geometry" />
        </mxCell>
        <mxCell id="pHzrLmhHpe5-lS-Qv1kn-19" value="non" style="text;html=1;strokeColor=none;fillColor=none;align=center;verticalAlign=middle;whiteSpace=wrap;rounded=0;" parent="1" vertex="1">
          <mxGeometry x="289.91999999999996" y="1570" width="30" height="20" as="geometry" />
        </mxCell>
        <mxCell id="pHzrLmhHpe5-lS-Qv1kn-20" value="oui" style="text;html=1;strokeColor=none;fillColor=none;align=center;verticalAlign=middle;whiteSpace=wrap;rounded=0;" parent="1" vertex="1">
          <mxGeometry x="229.95999999999998" y="1540" width="30" height="20" as="geometry" />
        </mxCell>
        <mxCell id="dF_B5DAqGJrbBnQ3naxt-11" style="edgeStyle=orthogonalEdgeStyle;rounded=0;orthogonalLoop=1;jettySize=auto;html=1;exitX=0.5;exitY=1;exitDx=0;exitDy=0;" parent="1" source="pHzrLmhHpe5-lS-Qv1kn-21" edge="1">
          <mxGeometry relative="1" as="geometry">
            <mxPoint x="140" y="1660" as="targetPoint" />
            <Array as="points">
              <mxPoint x="280" y="1660" />
              <mxPoint x="140" y="1660" />
            </Array>
          </mxGeometry>
        </mxCell>
        <mxCell id="pHzrLmhHpe5-lS-Qv1kn-21" value="delay: 25ms" style="rounded=0;whiteSpace=wrap;html=1;" parent="1" vertex="1">
          <mxGeometry x="219.95999999999998" y="1600" width="120" height="40" as="geometry" />
        </mxCell>
        <mxCell id="pHzrLmhHpe5-lS-Qv1kn-26" style="edgeStyle=orthogonalEdgeStyle;rounded=0;orthogonalLoop=1;jettySize=auto;html=1;exitX=0.5;exitY=1;exitDx=0;exitDy=0;entryX=0.5;entryY=0;entryDx=0;entryDy=0;" parent="1" source="pHzrLmhHpe5-lS-Qv1kn-23" target="pHzrLmhHpe5-lS-Qv1kn-25" edge="1">
          <mxGeometry relative="1" as="geometry" />
        </mxCell>
        <mxCell id="pHzrLmhHpe5-lS-Qv1kn-23" value="remettre compteur à 0" style="rounded=0;whiteSpace=wrap;html=1;" parent="1" vertex="1">
          <mxGeometry x="219.95999999999998" y="1160" width="120" height="40" as="geometry" />
        </mxCell>
        <mxCell id="pHzrLmhHpe5-lS-Qv1kn-36" style="edgeStyle=orthogonalEdgeStyle;rounded=0;orthogonalLoop=1;jettySize=auto;html=1;exitX=0.5;exitY=1;exitDx=0;exitDy=0;entryX=0.5;entryY=0;entryDx=0;entryDy=0;" parent="1" source="pHzrLmhHpe5-lS-Qv1kn-25" target="pHzrLmhHpe5-lS-Qv1kn-13" edge="1">
          <mxGeometry relative="1" as="geometry" />
        </mxCell>
        <mxCell id="pHzrLmhHpe5-lS-Qv1kn-25" value="lire et afficher&lt;br&gt;état compteur" style="shape=parallelogram;perimeter=parallelogramPerimeter;whiteSpace=wrap;html=1;fixedSize=1;" parent="1" vertex="1">
          <mxGeometry x="209.95999999999998" y="1240" width="140" height="40" as="geometry" />
        </mxCell>
        <mxCell id="dF_B5DAqGJrbBnQ3naxt-4" style="edgeStyle=orthogonalEdgeStyle;rounded=0;orthogonalLoop=1;jettySize=auto;html=1;exitX=0.5;exitY=1;exitDx=0;exitDy=0;" parent="1" source="pHzrLmhHpe5-lS-Qv1kn-31" target="pHzrLmhHpe5-lS-Qv1kn-32" edge="1">
          <mxGeometry relative="1" as="geometry" />
        </mxCell>
        <mxCell id="pHzrLmhHpe5-lS-Qv1kn-31" value="compteur +1" style="rounded=0;whiteSpace=wrap;html=1;" parent="1" vertex="1">
          <mxGeometry x="219.95999999999998" y="400" width="120" height="40" as="geometry" />
        </mxCell>
        <mxCell id="dF_B5DAqGJrbBnQ3naxt-7" style="edgeStyle=orthogonalEdgeStyle;rounded=0;orthogonalLoop=1;jettySize=auto;html=1;exitX=0.5;exitY=1;exitDx=0;exitDy=0;entryX=0.5;entryY=0;entryDx=0;entryDy=0;" parent="1" source="pHzrLmhHpe5-lS-Qv1kn-32" target="dF_B5DAqGJrbBnQ3naxt-1" edge="1">
          <mxGeometry relative="1" as="geometry" />
        </mxCell>
        <mxCell id="pHzrLmhHpe5-lS-Qv1kn-32" value="lire et afficher&lt;br&gt;état compteur" style="shape=parallelogram;perimeter=parallelogramPerimeter;whiteSpace=wrap;html=1;fixedSize=1;" parent="1" vertex="1">
          <mxGeometry x="209.95999999999998" y="480" width="140" height="40" as="geometry" />
        </mxCell>
        <mxCell id="dF_B5DAqGJrbBnQ3naxt-6" style="edgeStyle=orthogonalEdgeStyle;rounded=0;orthogonalLoop=1;jettySize=auto;html=1;exitX=0.5;exitY=1;exitDx=0;exitDy=0;entryX=0.5;entryY=0;entryDx=0;entryDy=0;" parent="1" source="dF_B5DAqGJrbBnQ3naxt-1" target="OnW3d8MUzAnd3P2urKrM-1" edge="1">
          <mxGeometry relative="1" as="geometry">
            <Array as="points">
              <mxPoint x="280" y="585" />
            </Array>
          </mxGeometry>
        </mxCell>
        <mxCell id="dF_B5DAqGJrbBnQ3naxt-1" value="allumer LED" style="shape=parallelogram;perimeter=parallelogramPerimeter;whiteSpace=wrap;html=1;fixedSize=1;" parent="1" vertex="1">
          <mxGeometry x="209.95999999999998" y="560" width="140" height="40" as="geometry" />
        </mxCell>
        <mxCell id="dF_B5DAqGJrbBnQ3naxt-14" style="edgeStyle=orthogonalEdgeStyle;rounded=0;orthogonalLoop=1;jettySize=auto;html=1;exitX=0.5;exitY=1;exitDx=0;exitDy=0;" parent="1" source="dF_B5DAqGJrbBnQ3naxt-12" edge="1">
          <mxGeometry relative="1" as="geometry">
            <mxPoint x="140" y="1060" as="targetPoint" />
            <Array as="points">
              <mxPoint x="280" y="1060" />
            </Array>
          </mxGeometry>
        </mxCell>
        <mxCell id="dF_B5DAqGJrbBnQ3naxt-12" value="éteindre LED" style="shape=parallelogram;perimeter=parallelogramPerimeter;whiteSpace=wrap;html=1;fixedSize=1;" parent="1" vertex="1">
          <mxGeometry x="209.96" y="1000" width="140" height="40" as="geometry" />
        </mxCell>
      </root>
    </mxGraphModel>
  </diagram>
</mxfile>
